<?xml version="1.0" encoding="UTF-8"?>
<svg id="Layer_2" data-name="Layer 2" xmlns="http://www.w3.org/2000/svg" xmlns:xlink="http://www.w3.org/1999/xlink" viewBox="0 0 1340.75 414.53">
  <defs>
    <style>
      .cls-1 {
        fill: url(#linear-gradient);
      }

      .cls-1, .cls-2, .cls-3 {
        stroke-width: 0px;
      }

      .cls-2 {
        fill: #f2f2f2;
      }

      .cls-3 {
        fill: url(#linear-gradient-2);
      }
    </style>
    <linearGradient id="linear-gradient" x1="926.21" y1="236.07" x2="1299.16" y2="236.07" gradientUnits="userSpaceOnUse">
      <stop offset="0" stop-color="#ffd79c"/>
      <stop offset="1" stop-color="#ff9400"/>
    </linearGradient>
    <linearGradient id="linear-gradient-2" x1="933.81" y1="175.58" x2="1340.75" y2="175.58" gradientUnits="userSpaceOnUse">
      <stop offset="0" stop-color="#ffd79a"/>
      <stop offset="1" stop-color="#ff9400"/>
    </linearGradient>
  </defs>
  <g id="Layer_2-2" data-name="Layer 2">
    <g>
      <path class="cls-2" d="M0,331.23v-190.92h42.76l7.53,3.92c9.03-1,18.77-1.91,29.21-2.71,10.44-.8,23.69-1.21,39.75-1.21h9.03c13.45,0,23.44,2.11,29.96,6.32,6.52,4.22,10.84,9.69,12.95,16.41,2.11,6.73,3.16,14,3.16,21.83v45.47c0,8.84-1.56,16.67-4.67,23.49-3.11,6.83-8.48,12.1-16.11,15.81-7.63,3.72-18.07,5.57-31.32,5.57h-9.03c-10.84,0-21.63-.45-32.37-1.36-10.74-.9-19.42-1.66-26.05-2.26v59.62H0ZM64.14,237.27h40.05c9.64,0,14.45-4.01,14.45-12.05v-34.93c0-4.01-.8-7.03-2.41-9.03-1.61-2-5.62-3.01-12.05-3.01h-2.71c-12.85,0-22.84.3-29.96.9-7.13.6-12.7,1.11-16.71,1.51v47.28c0,4.42.45,7.08,1.35,7.98.9.9,3.56,1.36,7.98,1.36Z"/>
      <path class="cls-2" d="M251.75,275.22c-13.25,0-23.14-1.96-29.66-5.87-6.53-3.92-10.84-9.28-12.95-16.11-2.11-6.82-3.16-14.35-3.16-22.58v-90.34h55.41v84.92c0,8.03,4.82,12.05,14.45,12.05h34.33c4.41,0,7.02-.4,7.83-1.21s1.2-3.41,1.2-7.83v-87.93h55.71v134.91h-43.67l-11.44-6.02c-8.03,1.61-17.27,3.01-27.7,4.22-10.44,1.2-20.98,1.81-31.62,1.81h-8.73Z"/>
      <path class="cls-2" d="M414.06,275.22V108.39l-3.01-24.09h57.82v190.92h-54.81Z"/>
      <path class="cls-2" d="M539.03,275.22c-13.45,0-22.99-.7-28.61-2.11-5.62-1.4-8.43-2.81-8.43-4.22l12.05-31.62c2.41.6,9.58,1.26,21.53,1.96,11.94.71,29.36,1.05,52.25,1.05h21.38c5.02,0,8.18-.55,9.49-1.66,1.3-1.1,1.96-3.06,1.96-5.87,0-3.41-.75-5.57-2.26-6.47-1.51-.9-4.57-1.36-9.18-1.36h-61.13c-14.66,0-26-2.76-34.03-8.28-8.03-5.52-12.05-15.4-12.05-29.66v-6.02c0-7.42,1-14.2,3.01-20.33,2-6.12,6.32-11.04,12.95-14.76,6.62-3.71,16.66-5.57,30.11-5.57h89.14c12.05,0,20.58.71,25.6,2.11,5.02,1.41,7.53,2.81,7.53,4.22l-3.01,31.92c-3.21-.6-11.29-1.25-24.24-1.96-12.95-.7-30.77-1.05-53.45-1.05h-21.38c-5.02,0-8.18.55-9.49,1.66-1.31,1.11-1.96,2.96-1.96,5.57s.65,4.47,1.96,5.57c1.3,1.11,4.47,1.66,9.49,1.66h62.34c15.66,0,27.2,3.42,34.63,10.24,7.42,6.83,11.14,16.36,11.14,28.61v5.72c0,7.23-.9,13.9-2.71,20.03-1.81,6.13-5.92,11.09-12.35,14.91-6.43,3.82-16.67,5.72-30.72,5.72h-91.55Z"/>
      <path class="cls-2" d="M755.55,275.22c-13.25,0-23.44-1.91-30.57-5.72-7.13-3.81-12-9.08-14.61-15.81-2.61-6.72-3.92-14.5-3.92-23.34v-45.47c0-8.03,1.36-15.41,4.07-22.13,2.71-6.72,7.58-12.14,14.61-16.26,7.03-4.11,17.17-6.17,30.42-6.17h62.34c15.66,0,27.65,1.86,35.99,5.57,8.33,3.72,14.05,8.94,17.17,15.66,3.11,6.73,4.67,14.51,4.67,23.34v38.55h-52.7c-18.07,0-31.77-.4-41.11-1.2-9.33-.8-15.91-1.3-19.72-1.51v4.52c-.2,8.03,4.62,12.05,14.46,12.05h9.33c16.06,0,30.91-.35,44.57-1.05,13.65-.7,23.79-1.36,30.42-1.96l18.07,28.61c0,2.01-1.71,3.92-5.12,5.72-3.42,1.81-9.39,3.36-17.92,4.67-8.54,1.31-20.63,1.96-36.29,1.96h-64.14ZM762.17,194.51h57.82v-4.22c0-4.01-.35-6.82-1.05-8.43-.71-1.6-2.86-2.61-6.47-3.01-3.61-.4-9.74-.6-18.37-.6h-17.47c-9.64,0-14.46,4.02-14.46,12.05v4.22Z"/>
    </g>
    <g>
      <path class="cls-2" d="M144.47,307.93h8.31l.77,4.61h.28c3.64-3.13,8.27-5.67,13.02-5.67,10.81,0,17,8.66,17,22,0,14.78-8.83,23.34-18.44,23.34-3.84,0-7.6-1.72-11.12-4.75l.32,7.18v13.62h-10.14v-60.33ZM173.44,328.98c0-8.62-2.82-13.73-9.4-13.73-3.13,0-6.09,1.58-9.43,4.86v20.13c3.1,2.64,6.16,3.59,8.66,3.59,5.77,0,10.17-5.07,10.17-14.85Z"/>
      <path class="cls-2" d="M194.1,307.93h8.31l.77,7.71h.28c3.08-5.63,7.66-8.76,12.28-8.76,2.2,0,3.59.28,4.89.88l-1.76,8.8c-1.51-.42-2.64-.7-4.44-.7-3.45,0-7.6,2.36-10.21,8.94v26.36h-10.14v-43.22Z"/>
      <path class="cls-2" d="M223.19,329.58c0-14.4,9.79-22.7,20.56-22.7s20.56,8.31,20.56,22.7-9.79,22.63-20.56,22.63-20.56-8.31-20.56-22.63ZM253.88,329.58c0-8.66-3.8-14.43-10.14-14.43s-10.14,5.77-10.14,14.43,3.8,14.36,10.14,14.36,10.14-5.7,10.14-14.36Z"/>
      <path class="cls-2" d="M263.9,368.15l1.87-7.57c1.16.35,2.39.67,3.73.67,3.87,0,4.96-2.67,4.96-7.71v-45.62h10.14v45.44c0,9.15-3.45,15.95-13.69,15.95-3.13,0-5.35-.53-7-1.16ZM273.3,294.62c0-3.42,2.68-5.74,6.27-5.74s6.27,2.32,6.27,5.74-2.68,5.74-6.27,5.74-6.27-2.39-6.27-5.74Z"/>
      <path class="cls-2" d="M294.65,329.58c0-14.04,9.75-22.7,19.92-22.7,11.69,0,17.85,8.45,17.85,20.52,0,1.94-.21,3.87-.44,4.93h-27.44c.84,7.67,5.77,12.04,12.74,12.04,3.7,0,6.86-1.16,10.03-3.13l3.45,6.3c-4.12,2.78-9.33,4.68-14.82,4.68-11.93,0-21.3-8.38-21.3-22.63ZM323.65,325.42c0-6.65-2.96-10.7-8.87-10.7-5.03,0-9.47,3.77-10.35,10.7h19.22Z"/>
      <path class="cls-2" d="M339.26,329.58c0-14.4,10.17-22.7,21.68-22.7,5.49,0,9.5,2.11,12.64,4.86l-4.93,6.58c-2.29-2.01-4.47-3.17-7.18-3.17-6.97,0-11.79,5.77-11.79,14.43s4.75,14.36,11.47,14.36c3.38,0,6.48-1.65,8.94-3.73l4.12,6.69c-4.05,3.59-9.19,5.31-14.11,5.31-11.79,0-20.84-8.31-20.84-22.63Z"/>
      <path class="cls-2" d="M383.4,336.58v-20.59h-6.16v-7.6l6.69-.46,1.2-11.79h8.41v11.79h11.02v8.06h-11.02v20.57c0,5.09,1.97,7.58,6.12,7.58,1.48,0,3.24-.49,4.51-.99l1.72,7.46c-2.36.77-5.37,1.58-8.83,1.58-9.96,0-13.66-6.3-13.66-15.63Z"/>
      <path class="cls-2" d="M431.25,307.93h8.31l.77,5.9h.28c3.66-3.82,7.85-6.95,13.27-6.95,6.34,0,9.94,2.89,11.93,7.74,4.14-4.4,8.41-7.74,13.9-7.74,9.12,0,13.34,6.27,13.34,17.18v27.1h-10.14v-25.8c0-7.11-2.11-9.79-6.65-9.79-2.75,0-5.7,1.76-9.05,5.38v30.2h-10.14v-25.8c0-7.11-2.11-9.79-6.65-9.79-2.67,0-5.7,1.76-9.05,5.38v30.2h-10.14v-43.22Z"/>
      <path class="cls-2" d="M503.11,339.54c0-9.26,7.67-14.08,25.41-15.98-.14-4.65-2.01-8.52-7.85-8.52-4.29,0-8.34,1.94-12.14,4.26l-3.73-6.76c4.75-2.99,10.88-5.67,17.74-5.67,10.81,0,16.12,6.65,16.12,18.69v25.59h-8.31l-.77-4.79h-.28c-3.87,3.31-8.31,5.84-13.41,5.84-7.57,0-12.78-5.14-12.78-12.67ZM528.53,339.57v-9.71c-11.72,1.48-15.63,4.54-15.63,8.91,0,3.82,2.61,5.49,6.23,5.49s6.2-1.72,9.4-4.68Z"/>
      <path class="cls-2" d="M550.84,307.93h8.31l.77,5.84h.28c3.87-3.77,8.27-6.9,14.18-6.9,9.26,0,13.31,6.27,13.31,17.18v27.1h-10.14v-25.8c0-7.11-2.04-9.79-6.72-9.79-3.8,0-6.3,1.87-9.86,5.38v30.2h-10.14v-43.22Z"/>
      <path class="cls-2" d="M597.8,339.54c0-9.26,7.67-14.08,25.41-15.98-.14-4.65-2.01-8.52-7.85-8.52-4.29,0-8.34,1.94-12.14,4.26l-3.73-6.76c4.75-2.99,10.88-5.67,17.74-5.67,10.81,0,16.12,6.65,16.12,18.69v25.59h-8.31l-.77-4.79h-.28c-3.87,3.31-8.31,5.84-13.41,5.84-7.57,0-12.78-5.14-12.78-12.67ZM623.22,339.57v-9.71c-11.72,1.48-15.63,4.54-15.63,8.91,0,3.82,2.61,5.49,6.23,5.49s6.2-1.72,9.4-4.68Z"/>
      <path class="cls-2" d="M642.57,359c0-3.64,2.25-6.83,6.23-9.22v-.35c-2.22-1.44-3.91-3.73-3.91-7.22s2.29-6.3,4.79-8.06v-.35c-2.96-2.18-5.7-6.3-5.7-11.4,0-9.93,8.03-15.52,17.07-15.52,2.39,0,4.65.42,6.41,1.06h15.45v7.53h-7.88c1.41,1.62,2.46,4.29,2.46,7.25,0,9.61-7.29,14.75-16.44,14.75-1.83,0-3.91-.39-5.84-1.14-1.3,1.11-2.11,2.2-2.11,4.14,0,2.43,1.76,3.91,7,3.91h7.69c10.33,0,15.82,3.2,15.82,10.67,0,8.52-8.94,15.24-23.05,15.24-10.31,0-17.99-3.7-17.99-11.26ZM673.83,356.68c0-3.34-2.67-4.33-7.62-4.33h-5.93c-2.32,0-4.19-.18-5.84-.6-2.32,1.76-3.34,3.7-3.34,5.7,0,3.94,4.22,6.23,11.02,6.23s11.72-3.27,11.72-7ZM668.55,322.39c0-5.42-3.27-8.52-7.5-8.52s-7.5,3.06-7.5,8.52,3.34,8.69,7.5,8.69,7.5-3.2,7.5-8.69Z"/>
      <path class="cls-2" d="M687.03,329.58c0-14.04,9.75-22.7,19.92-22.7,11.69,0,17.85,8.45,17.85,20.52,0,1.94-.21,3.87-.44,4.93h-27.44c.84,7.67,5.77,12.04,12.74,12.04,3.7,0,6.86-1.16,10.03-3.13l3.45,6.3c-4.12,2.78-9.33,4.68-14.82,4.68-11.93,0-21.3-8.38-21.3-22.63ZM716.04,325.42c0-6.65-2.96-10.7-8.87-10.7-5.03,0-9.47,3.77-10.35,10.7h19.22Z"/>
      <path class="cls-2" d="M734.5,307.93h8.31l.77,5.9h.28c3.66-3.82,7.85-6.95,13.27-6.95,6.34,0,9.94,2.89,11.93,7.74,4.14-4.4,8.41-7.74,13.9-7.74,9.12,0,13.34,6.27,13.34,17.18v27.1h-10.14v-25.8c0-7.11-2.11-9.79-6.65-9.79-2.75,0-5.7,1.76-9.05,5.38v30.2h-10.14v-25.8c0-7.11-2.11-9.79-6.65-9.79-2.67,0-5.7,1.76-9.05,5.38v30.2h-10.14v-43.22Z"/>
      <path class="cls-2" d="M805.83,329.58c0-14.04,9.75-22.7,19.92-22.7,11.69,0,17.85,8.45,17.85,20.52,0,1.94-.21,3.87-.44,4.93h-27.44c.84,7.67,5.77,12.04,12.74,12.04,3.7,0,6.86-1.16,10.03-3.13l3.45,6.3c-4.12,2.78-9.33,4.68-14.82,4.68-11.93,0-21.3-8.38-21.3-22.63ZM834.83,325.42c0-6.65-2.96-10.7-8.87-10.7-5.03,0-9.47,3.77-10.35,10.7h19.22Z"/>
      <path class="cls-2" d="M853.3,307.93h8.31l.77,5.84h.28c3.87-3.77,8.27-6.9,14.18-6.9,9.26,0,13.31,6.27,13.31,17.18v27.1h-10.14v-25.8c0-7.11-2.04-9.79-6.72-9.79-3.8,0-6.3,1.87-9.86,5.38v30.2h-10.14v-43.22Z"/>
      <path class="cls-2" d="M904.09,336.58v-20.59h-6.16v-7.6l6.69-.46,1.2-11.79h8.41v11.79h11.02v8.06h-11.02v20.57c0,5.09,1.97,7.58,6.12,7.58,1.48,0,3.24-.49,4.51-.99l1.72,7.46c-2.36.77-5.37,1.58-8.83,1.58-9.96,0-13.66-6.3-13.66-15.63Z"/>
    </g>
    <path class="cls-1" d="M1293.16,328.2c1.65,1.31,3.64,2.56,5.99,3.61-49.46,65.77-135.74,98.32-220,75.43-100.6-27.33-163.64-124.18-151.45-224.66,10.65,1.96,22.53.77,34.69-3.61,6.25-2.27,13.44-7.05,24.63-14.66,5.74-3.89,15.23-10.37,21.39-13.55.11,8.58-2.44,24.06-4.09,34.15-4.89,29.6-9.52,57.59,3.98,74.01,3.95,4.83,11.22,10.63,23.41,11.02,20.11.62,32.42-23.44,65.23-93.13,13.72-29.06,27.87-59.12,41.85-82.84,17.64-29.97,26.82-35.4,29.2-36.36.26.26.65.62,1.11,1.22,9.66,12.13-3.21,64.63-13.55,106.82-19.8,80.65-42.19,172.05,7.39,213.64,4.6,4.15,10.03,6.34,15.68,6.34,1.59,0,3.21-.17,4.8-.51,19.46-4.18,31.76-31.93,53.64-84.8,9.52-23.07,19.38-46.9,29.4-65.23,8.13-14.86,13.95-21.45,17.36-24.38-.2,7.61-1.36,19.03-2.3,28.1-3.95,38.21-7.67,74.29,11.65,89.4Z"/>
    <path class="cls-3" d="M1333.45,261.61c-4.38,16.11-10.51,31.22-18.18,45.26,0,0-2.62-2.75-3.27-4.18-4.69-9.43-1.02-45.06.6-60.68,3.38-32.9,5.26-51.02-7.98-59.55-8.3-5.34-17.53-6.68-26.68-3.81-26.11,8.18-44.57,48.75-69.77,109.72-8.69,21.02-21.19,51.25-29.4,62.78-28.58-32.39-8.86-112.84,7.13-178.07,15-61.25,26.88-109.6,7.64-133.75-10.34-12.98-22.33-13.69-28.55-12.98-31.25,3.66-57.22,54.26-96.31,137.13-12.16,25.85-28.27,60-37.47,72.42-2.05-9.66,1.9-33.61,3.95-45.91,4.72-28.64,8.47-51.22-3.66-64.38-5.26-5.71-12.76-8.47-21.08-7.84-10.77.65-22.7,8.27-40.94,20.68-5.91,4.01-14.8,10.09-17.67,11.11-6.56,2.36-12.87,3.15-17.98,2.3,30.46-109.8,143.92-174.49,253.98-144.55,110.46,30,175.65,143.84,145.65,254.29Z"/>
  </g>
</svg>